<?xml version="1.0" encoding="utf-8"?>
<!-- Generator: Adobe Illustrator 12.0.1, SVG Export Plug-In . SVG Version: 6.00 Build 51448)  -->
<!DOCTYPE svg PUBLIC "-//W3C//DTD SVG 1.1//EN" "http://www.w3.org/Graphics/SVG/1.1/DTD/svg11.dtd" [
	<!ENTITY ns_svg "http://www.w3.org/2000/svg">
	<!ENTITY ns_xlink "http://www.w3.org/1999/xlink">
]>
<svg  version="1.1" id="Layer_1" xmlns="&ns_svg;" xmlns:xlink="&ns_xlink;" width="298.047" height="283.751"
	 viewBox="0 0 298.047 283.751" overflow="visible" enable-background="new 0 0 298.047 283.751" xml:space="preserve">
<path fill="#04A363" d="M239.331,30.224C153.157-1.213,99.298,18.735,57.895,31.143c0,0-1.499,0.612-2.063-0.757
	c-0.523-1.337,0.798-2.046,0.798-2.046C95.35,5.2,164.243-21.387,240.845,27.549c0,0,1.45,0.645,0.902,2.063
	C241.183,31.32,239.331,30.224,239.331,30.224"/>
<path fill="#04A363" d="M132.645,120.652c-16.202,26.619-52.932-2.981-36.779-24.621c-17.539-10.876-0.797-34.595,13.938-27.86
	c-7.146-8.347,2.264-18.434,9.636-12.246c3.102-38.253,53.149-36.094,57.564-2.465c22.043-7.928,37.061,22.8,22.623,35.562
	c14.566,28.166-15.952,50-34.595,34.853c-0.709-0.645-2.047-1.192-1.531-2.401c0.516-1.144,1.611-0.451,2.707-0.419
	c24.25,0.628,33.87-22.333,29.857-31.969c4.125-17.338-6.751-29.616-21.236-33.161c-14.809-29.922-48.92-17.676-53.408,2.014
	c-6.106,1.885-9.587,5.575-9.023,12.439l-1.829,0.451c-16.162,5.64-14.792,22.172-11.585,25.04
	c-1.104,23.542,18.877,27.731,31.808,22.897c0.5-0.161,1.732-0.999,2.377-0.097C133.337,118.896,133.579,119.524,132.645,120.652"/>
<path fill="#04A363" d="M250.384,36.847c26.458,41.798,24.557,74.782-0.032,126.425c0,0-0.709,1.112-1.805,0.532
	c-0.919-0.451-0.548-1.692-0.548-1.692c9.636-43.313,12.278-69.464,0.064-123.637c0,0-0.66-1.563,0.725-2.143
	C249.789,35.928,250.384,36.847,250.384,36.847"/>
<path fill="#04A363" d="M171.316,111.371c-8.152,3.11-25.668,6.913-12.133,51.433h-21.262c12.851-45.342-8.411-53.77-20.343-58.974
	c0,0-1.257-0.532-1.257-1.499c0.016-1.063,1.49-1.112,1.7-1.144c14.639-0.838,27.916,10.586,30.784,17.418
	c3.577-6.3,14.131-10.909,22.14-9.668l0.306,0.097c0.436,0.081,1.258,0.306,1.258,1.015c0,0.757-0.242,0.886-0.484,1.047
	L171.316,111.371z"/>
<path fill="#04A363" d="M46.857,163.933c-24.073-42.346-24.533-91.927-0.677-126.329c0,0,0.79-1.66,2.014-1.063
	c1.088,0.532,0.628,1.982,0.628,1.982c-11.352,50.128-8.75,81.517,0.693,124.62c0,0,0.379,1.16-0.645,1.724
	C47.55,165.575,46.857,163.933,46.857,163.933"/>
<path fill="#04A363" d="M240.523,169.571c-68.965,19.32-129.825,13.02-183.039,0.033c0,0-1.272-0.451-1.764,0.789
	c-0.58,1.467,0.854,2.03,0.854,2.03c55.623,31.582,129.695,31.002,185.013-0.017c0,0,1.16-0.709,0.628-2.014
	C241.683,169.233,240.523,169.571,240.523,169.571"/>
<polygon fill="#0E1616" points="14.88,217.799 23.195,217.799 12.939,230.028 24.138,243.612 15.445,243.612 6.784,232.413 
	6.679,232.413 6.679,243.612 0,243.612 0,217.799 6.679,217.799 6.679,228.466 6.784,228.466 "/>
<polygon fill="#0E1616" points="36.038,217.799 42.732,217.799 55.027,233.59 55.091,233.59 55.091,217.799 61.794,217.799 
	61.794,243.612 55.091,243.612 42.813,227.806 42.732,227.806 42.732,243.612 36.038,243.612 "/>
<path fill="#0E1616" d="M102.827,230.222c0,8.348-5.97,14.229-14.292,14.229c-8.282,0-14.252-5.881-14.252-14.229
	c0-7.799,6.848-13.261,14.252-13.261C95.979,216.961,102.827,222.423,102.827,230.222 M81.259,230.255
	c0,4.463,3.287,7.686,7.275,7.686c4.028,0,7.299-3.223,7.299-7.686c0-3.545-3.271-6.801-7.299-6.801
	C84.546,223.454,81.259,226.71,81.259,230.255"/>
<polygon fill="#0E1616" points="122.743,234.46 122.792,234.46 128.221,217.799 133.531,217.799 138.598,234.46 138.663,234.46 
	143.529,217.799 150.531,217.799 142.28,243.612 135.432,243.612 130.928,228.675 130.808,228.675 125.78,243.612 118.98,243.612 
	111.294,217.799 118.271,217.799 "/>
<polygon fill="#0E1616" points="168.271,237.925 176.36,237.925 176.36,243.612 161.617,243.612 161.617,217.799 168.271,217.799 
	"/>
<polygon fill="#0E1616" points="194.31,223.471 194.31,227.806 201.851,227.806 201.851,233.478 194.31,233.478 194.31,237.925 
	202.27,237.925 202.27,243.612 187.607,243.612 187.607,217.799 202.27,217.799 202.27,223.471 "/>
<path fill="#0E1616" d="M214.806,217.799h9.49c7.203,0,13.133,5.655,13.133,12.891c0,7.251-5.962,12.923-13.133,12.923h-9.49
	V217.799z M221.494,237.925h1.498c4.028,0,7.444-2.191,7.444-7.235c0-4.593-3.062-7.219-7.348-7.219h-1.595V237.925z"/>
<path fill="#0E1616" d="M272.621,229.207c-0.064,3.738-0.354,6.978-2.675,10.184c-2.514,3.545-6.316,5.06-10.618,5.06
	c-8.105,0-13.745-5.479-13.745-13.615c0-8.379,5.672-13.874,13.986-13.874c5.285,0,9.41,2.401,11.602,7.202l-6.349,2.659
	c-0.902-2.449-2.868-4.077-5.592-4.077c-4.398,0-6.703,4.206-6.703,8.138c0,4.013,2.434,8.089,6.832,8.089
	c2.885,0,5.108-1.531,5.383-4.512h-5.463v-5.253H272.621z"/>
<polygon fill="#0E1616" points="290.072,223.471 290.072,227.806 297.628,227.806 297.628,233.478 290.072,233.478 290.072,237.925 
	298.047,237.925 298.047,243.612 283.369,243.612 283.369,217.799 298.047,217.799 298.047,223.471 "/>
<polygon fill="#0E1616" points="31.928,257.083 38.607,257.083 50.902,272.874 50.95,272.874 50.95,257.083 57.702,257.083 
	57.702,282.896 50.95,282.896 38.688,267.089 38.607,267.089 38.607,282.896 31.928,282.896 "/>
<polygon fill="#0E1616" points="78.85,262.755 78.85,267.089 86.44,267.089 86.44,272.777 78.85,272.777 78.85,277.208 
	86.818,277.208 86.818,282.896 72.204,282.896 72.204,257.083 86.818,257.083 86.818,262.755 "/>
<polygon fill="#0E1616" points="111.343,282.896 104.624,282.896 104.624,262.755 99.081,262.755 99.081,257.083 116.886,257.083 
	116.886,262.755 111.343,262.755 "/>
<polygon fill="#0E1616" points="137.479,273.761 137.543,273.761 142.973,257.083 148.283,257.083 153.35,273.761 153.415,273.761 
	158.265,257.083 165.274,257.083 157.024,282.896 150.16,282.896 145.648,267.943 145.591,267.943 140.532,282.896 133.7,282.896 
	126.022,257.083 133.007,257.083 "/>
<path fill="#0E1616" d="M201.529,269.522c0,8.347-5.994,14.229-14.276,14.229s-14.244-5.882-14.244-14.229
	c0-7.814,6.832-13.277,14.244-13.277C194.697,256.245,201.529,261.708,201.529,269.522 M179.969,269.538
	c0,4.447,3.287,7.703,7.283,7.703s7.283-3.256,7.283-7.703c0-3.561-3.287-6.815-7.283-6.815S179.969,265.978,179.969,269.538"/>
<path fill="#0E1616" d="M234.335,282.896h-8.347l-6.349-9.958h-0.097v9.958h-6.671v-25.813h10.006c5.076,0,8.959,2.417,8.959,7.943
	c0,3.562-1.981,6.639-5.639,7.3L234.335,282.896z M219.543,268.652h0.661c2.207,0,4.641-0.403,4.641-3.206
	c0-2.805-2.434-3.223-4.641-3.223h-0.661V268.652z"/>
<polygon fill="#0E1616" points="259.214,257.083 267.544,257.083 257.265,269.313 268.463,282.896 259.779,282.896 251.125,271.698 
	251.029,271.698 251.029,282.896 244.326,282.896 244.326,257.083 251.029,257.083 251.029,267.733 251.125,267.733 "/>
</svg>
